<?xml version="1.0" encoding="utf-8"?>
<!-- Generator: Adobe Illustrator 26.1.0, SVG Export Plug-In . SVG Version: 6.00 Build 0)  -->
<svg version="1.1" id="Layer_1" xmlns="http://www.w3.org/2000/svg" xmlns:xlink="http://www.w3.org/1999/xlink" x="0px" y="0px"
	 viewBox="0 0 186 186" style="enable-background:new 0 0 186 186;" xml:space="preserve">
<style type="text/css">
	.st0{fill:#F2F2F7;filter:url(#Adobe_OpacityMaskFilter);}
	.st1{mask:url(#mask0_1359_43410_00000113314109914404889900000009187204730555465363_);}
	.st2{fill:#F2F2F7;}
	.st3{fill:#404040;}
</style>
<defs>
	<filter id="Adobe_OpacityMaskFilter" filterUnits="userSpaceOnUse" x="0" y="0" width="186" height="186">
		<feColorMatrix  type="matrix" values="1 0 0 0 0  0 1 0 0 0  0 0 1 0 0  0 0 0 1 0"/>
	</filter>
</defs>
<mask maskUnits="userSpaceOnUse" x="0" y="0" width="186" height="186" id="mask0_1359_43410_00000113314109914404889900000009187204730555465363_">
	<circle class="st0" cx="93" cy="93" r="93"/>
</mask>
<g class="st1">
	<circle class="st2" cx="93" cy="93" r="93"/>
</g>
<g>
	<path class="st3" d="M102.34,102.93l-8.1-2.46l5.04,28.87c0.31,1.59,1.71,2.74,3.33,2.74h0.06c2.02,0,3.58-1.74,3.36-3.77
		L102.34,102.93z"/>
	<path class="st3" d="M79.92,128.31c-0.22,2.02,1.37,3.77,3.36,3.77c1.62,0,3.02-1.15,3.33-2.77l3.11-24.04l-7.72,7.38L79.92,128.31
		z"/>
	<path class="st3" d="M61.02,73.94l11.93,2.99c1.28,0.31,2.62,0.4,3.92,0.25l8.13-0.9l-0.72,12.36l7.35,2.65l8.16-9.15l-0.16-5.85
		l4.8,0.53l4.98-6.23l-12.83-2.93l-0.44-1.25c0.16-0.06,0.31-0.16,0.47-0.25c0.84-0.47,1.53-1.15,1.99-1.99
		c3.67-6.6-3.05-13.33-9.65-9.65c-0.84,0.47-1.53,1.15-1.99,1.99c-2.27,4.11-0.56,8.22,2.65,9.93l-0.56,1.43l-11.3,2.77
		c-1.56,0.4-3.18,0.44-4.73,0.12L62.3,68.71c-1.53-0.31-2.99,0.69-3.24,2.24C58.81,72.26,59.68,73.6,61.02,73.94z"/>
	<path class="st3" d="M145.94,93c0-7.5-1.53-14.76-4.58-21.55c-2.77-6.2-6.63-11.71-11.49-16.44c0.28-0.56,0.5-1.15,0.65-1.77
		c0.34-1.71,0-3.43-0.93-4.89c-0.97-1.43-2.43-2.43-4.11-2.77c-1.71-0.34-3.43,0-4.89,0.93c-0.31,0.22-0.62,0.47-0.9,0.72
		c-8.1-4.67-17.28-7.16-26.69-7.16c-8.84,0-17.56,2.21-25.28,6.41c-1.18-1.15-2.77-1.87-4.55-1.87c-3.58,0-6.48,2.9-6.48,6.48
		c0,1,0.22,1.96,0.65,2.8C46.35,63.92,40.06,78.12,40.06,93c0,10.43,3.02,20.49,8.72,29.15c-0.75,0.84-1.28,1.87-1.53,3.05
		c-0.72,3.52,1.56,6.94,5.08,7.66c0.44,0.09,0.87,0.12,1.31,0.12c1.28,0,2.46-0.37,3.49-1.03c9.81,9,22.48,13.98,35.87,13.98
		c12.02,0,23.7-4.11,33.07-11.58c1.03,0.69,2.24,1.09,3.58,1.09c3.58,0,6.48-2.9,6.48-6.48c0-1.37-0.44-2.65-1.15-3.67
		C142.04,116.04,145.94,104.65,145.94,93z M138.34,72.79c2.83,6.38,4.3,13.17,4.3,20.21c0,2.71-0.22,5.45-0.69,8.1
		c-1.56-1.31-3.89-2.77-7.07-4.48c-5.98-3.21-14.73-6.98-24.57-10.65c-0.87-0.31-1.81,0.12-2.12,0.97
		c-0.31,0.87,0.12,1.81,0.97,2.12c9.12,3.39,17.03,6.79,22.92,9.81c6.29,3.24,8.22,5.04,8.81,5.79c-1.09,0.31-4.64,0.69-15.16-1.4
		c-6.88-1.37-14.88-3.39-23.63-6.01l-0.87-7.66c4.02-4.48,7.54-8.38,10.81-12.49c0.34-0.06,0.72-0.12,1.06-0.22l11.93-2.99
		c1.34-0.34,2.21-1.65,1.99-3.05c-0.25-1.53-1.71-2.55-3.24-2.24l-6.23,1.18c3.18-4.42,5.61-8.31,7.13-11.43
		c1.06-0.06,2.06-0.4,2.96-1C132.14,61.86,135.75,67.03,138.34,72.79z M121.03,51.3c0.16-0.84,0.65-1.56,1.37-2.02
		c0.53-0.34,1.12-0.5,1.74-0.5c0.22,0,0.44,0.03,0.62,0.06c0.84,0.16,1.56,0.65,2.02,1.37c0.47,0.72,0.62,1.56,0.47,2.4
		s-0.65,1.56-1.37,2.02c-0.72,0.47-1.56,0.62-2.4,0.47c-0.84-0.16-1.56-0.65-2.02-1.37C121.03,52.99,120.87,52.15,121.03,51.3z
		 M63.17,47.91c1.74,0,3.18,1.43,3.18,3.18c0,1.74-1.43,3.18-3.18,3.18c-1.74,0-3.18-1.43-3.18-3.18S61.42,47.91,63.17,47.91z
		 M53.08,70.67c-1.71-0.16-3.18-0.19-4.36-0.09c2.68-5.29,6.29-10.09,10.74-14.17c1.06,0.72,2.34,1.15,3.71,1.15
		c3.58,0,6.48-2.9,6.48-6.48c0-0.62-0.09-1.18-0.25-1.74c7.19-3.89,15.32-5.95,23.57-5.95c8.78,0,17.38,2.3,24.94,6.69
		c-0.06,0.19-0.09,0.37-0.16,0.56c-0.03,0.09-0.03,0.19-0.06,0.28c-3.77,2.02-8.91,5.82-14.92,10.99c-0.69,0.59-0.78,1.65-0.16,2.34
		c0.34,0.37,0.78,0.56,1.25,0.56c0.37,0,0.78-0.12,1.09-0.4c5.23-4.52,9.75-7.94,13.2-9.96c0.16,0.37,0.34,0.72,0.56,1.06
		c0.65,0.97,1.49,1.71,2.52,2.24c-4.2,8.13-14.73,21.7-27.4,35.25c-0.4,0.44-0.81,0.87-1.25,1.31c-4.52-1.46-8.91-3.02-13.08-4.58
		c0.34-0.37,0.69-0.75,1.03-1.12c0.62-0.69,0.56-1.74-0.12-2.34c-0.69-0.62-1.74-0.56-2.34,0.12c-0.62,0.69-1.25,1.4-1.9,2.12
		c-5.76-2.21-11.05-4.42-15.54-6.54C50.96,77.43,48.32,75,47.6,74.13c0.62-0.16,2.09-0.37,5.2-0.12c0.9,0.09,1.71-0.59,1.77-1.53
		C54.7,71.58,54.01,70.77,53.08,70.67z M43.4,93c0-5.45,0.9-10.77,2.58-15.82c1.87,1.74,5.42,4.02,11.74,7.07
		c4.61,2.21,10.09,4.58,16.13,6.91c-0.22,0.25-0.44,0.53-0.65,0.78c-10,11.58-17.22,21.77-19.96,28.06
		c-0.56,0.03-1.12,0.16-1.65,0.31C46.2,112.21,43.4,102.78,43.4,93z M56.72,127.1c-0.34,1.71-2.02,2.83-3.74,2.49
		c-1.71-0.34-2.83-2.02-2.49-3.74c0.31-1.49,1.62-2.55,3.11-2.55c0.22,0,0.4,0.03,0.62,0.06C55.98,123.7,57.1,125.38,56.72,127.1z
		 M56.54,120.68c2.8-5.98,9.84-15.76,19.15-26.56c0.47-0.56,0.97-1.12,1.46-1.68c2.24,0.84,4.05,1.49,6.45,2.34l-1.18,9.84
		c-9.5,9.15-17.56,15.66-23.11,18.71C58.68,122.21,57.72,121.27,56.54,120.68z M129.65,132.11c-1.74,0-3.18-1.43-3.18-3.18
		c0-1.74,1.43-3.18,3.18-3.18c1.74,0,3.18,1.43,3.18,3.18C132.8,130.68,131.39,132.11,129.65,132.11z M132.45,123.08
		c-0.84-0.4-1.81-0.65-2.83-0.65c-3.58,0-6.48,2.9-6.48,6.48c0,1.06,0.25,2.06,0.72,2.93c-8.75,6.94-19.65,10.74-30.86,10.74
		c-12.55,0-24.44-4.67-33.63-13.14c0.28-0.53,0.5-1.12,0.62-1.71c0.06-0.37,0.12-0.75,0.12-1.12c7.41-3.77,20.18-14.7,33.44-28.52
		c12.3,3.95,24.01,7.07,33.16,8.75c5.26,0.97,8.94,1.37,11.52,1.37c0.75,0,1.43-0.03,1.99-0.09
		C138.53,113.52,135.91,118.57,132.45,123.08z"/>
</g>
</svg>
