<?xml version="1.0" encoding="utf-8"?>
<!-- Generator: Adobe Illustrator 26.1.0, SVG Export Plug-In . SVG Version: 6.00 Build 0)  -->
<svg version="1.1" id="Layer_1" xmlns="http://www.w3.org/2000/svg" xmlns:xlink="http://www.w3.org/1999/xlink" x="0px" y="0px"
	 viewBox="0 0 186 186" style="enable-background:new 0 0 186 186;" xml:space="preserve">
<style type="text/css">
	.st0{fill:#F2F2F7;filter:url(#Adobe_OpacityMaskFilter);}
	.st1{mask:url(#mask0_1359_43410_00000113314109914404889900000009187204730555465363_);}
	.st2{fill:#F2F2F7;}
	.st3{fill:#404040;}
</style>
<defs>
	<filter id="Adobe_OpacityMaskFilter" filterUnits="userSpaceOnUse" x="0" y="0" width="186" height="186">
		<feColorMatrix  type="matrix" values="1 0 0 0 0  0 1 0 0 0  0 0 1 0 0  0 0 0 1 0"/>
	</filter>
</defs>
<mask maskUnits="userSpaceOnUse" x="0" y="0" width="186" height="186" id="mask0_1359_43410_00000113314109914404889900000009187204730555465363_">
	<circle class="st0" cx="93" cy="93" r="93"/>
</mask>
<g class="st1">
	<circle class="st2" cx="93" cy="93" r="93"/>
</g>
<path class="st3" d="M53.42,109.08c-0.11-2.2,1.24-3.42,3.42-3.42h13.48c2.18,0,3.19,1.1,3.53,3.31c0.79,3.76,2.97,4.41,6.5,4.41
	h24.45c4.35,0,7.55-0.57,7.55-5.4V106c0-4.86-2.85-5.4-7.55-5.4H86.32c-2.18,0-3.42-1.22-3.42-3.31v-8.37
	c0-2.09,1.24-3.31,3.42-3.31h17.69c4.35,0,7.55-0.57,7.55-5.4v-1.98c0-4.75-2.85-5.4-7.55-5.4H80.38c-3.53,0-5.71,0.57-6.5,4.18
	c-0.34,2.2-1.36,3.31-3.53,3.31H56.86c-2.18,0-3.53-1.22-3.42-3.42c1.13-14.78,9.92-22.84,26.94-22.84h24.45
	c18.18,0,26.94,7.83,27.19,22.05v1.1c0,7.6-2.52,12.69-6.76,15.66c4.47,3.08,7.32,8.4,7.32,16.42v0.99
	c0,14.1-8.79,21.62-26.94,21.62H80.41C63.37,131.89,54.55,123.87,53.42,109.08z"/>
</svg>
