<?xml version="1.0" encoding="utf-8"?>
<!-- Generator: Adobe Illustrator 26.1.0, SVG Export Plug-In . SVG Version: 6.00 Build 0)  -->
<svg version="1.1" id="Layer_1" xmlns="http://www.w3.org/2000/svg" xmlns:xlink="http://www.w3.org/1999/xlink" x="0px" y="0px"
	 viewBox="0 0 186 186" style="enable-background:new 0 0 186 186;" xml:space="preserve">
<style type="text/css">
	.st0{fill:#F2F2F7;filter:url(#Adobe_OpacityMaskFilter);}
	.st1{mask:url(#mask0_1359_43410_00000113314109914404889900000009187204730555465363_);}
	.st2{fill:#F2F2F7;}
	.st3{fill:#404040;}
</style>
<defs>
	<filter id="Adobe_OpacityMaskFilter" filterUnits="userSpaceOnUse" x="0" y="0" width="186" height="186">
		<feColorMatrix  type="matrix" values="1 0 0 0 0  0 1 0 0 0  0 0 1 0 0  0 0 0 1 0"/>
	</filter>
</defs>
<mask maskUnits="userSpaceOnUse" x="0" y="0" width="186" height="186" id="mask0_1359_43410_00000113314109914404889900000009187204730555465363_">
	<circle class="st0" cx="93" cy="93" r="93"/>
</mask>
<g class="st1">
	<circle class="st2" cx="93" cy="93" r="93"/>
</g>
<g>
	<path class="st3" d="M76.4,91.26c0.35-0.24,0.71-0.41,1.09-0.53c0-0.03,0-0.09,0-0.12c0-0.32,0.03-0.53,0.03-0.68
		c0.74-8.5,4.27-18.59,8.65-24.74c-0.26-0.47-0.44-0.97-0.53-1.47c-2.32-0.26-7.85,0.03-12.62,1.53c-2.74,2.15-5.15,4.71-7.09,7.59
		C67.19,80.11,71.22,87.26,76.4,91.26z"/>
	<path class="st3" d="M127.5,57.2c-1.47-1.47-4-0.38-4.85-0.03c-1.65,0.71-3.8,1.94-6.35,3.71c-0.68,0.47-0.85,1.41-0.38,2.12
		c0.47,0.68,1.41,0.85,2.12,0.38c4.41-3.03,6.38-3.71,7.15-3.85c-0.29,1.56-2.74,6.56-11.65,17.21c0.26,0.56,0.41,1.18,0.41,1.85
		c0,2.41-1.94,4.35-4.35,4.35c-0.47,0-0.91-0.09-1.32-0.21c-4.3,4.77-10.09,11-12.3,13.24c-0.79,0.79-1.62,1.62-2.41,2.38
		c2.53,0.62,5.8,1.32,9.44,1.91c1,0.15,1.97,0.29,2.91,0.44c7.03-7.59,13.3-15.09,17.95-21.21c-0.88-2.32-2.03-4.53-3.38-6.56
		c1.94-2.53,3.59-4.85,4.82-6.83C128.29,61.31,128.94,58.67,127.5,57.2z"/>
	<path class="st3" d="M86.37,60.76c0.21-0.26,0.44-0.53,0.71-0.76c1.74-1.47,4.32-1.24,5.77,0.5c0.5,0.59,0.79,1.29,0.91,2.03
		c3.82,1.09,12.15,5.3,15.95,11.71c0.62,0,1.21,0.15,1.74,0.41c1.38-1.65,2.65-3.24,3.82-4.77c0.47-0.59,0.88-1.18,1.29-1.71
		c-5.94-6.06-14.24-9.83-23.39-9.83c-4.35,0-8.53,0.85-12.33,2.41C83.19,60.58,85.19,60.61,86.37,60.76z"/>
	<path class="st3" d="M106.64,75.41c-1.97-2.91-6.03-7.33-13.56-9.91c-0.21,0.29-0.44,0.56-0.71,0.79c-1.09,0.91-2.5,1.18-3.8,0.79
		c-4,5.68-7.35,15.27-8,23.12c0,0.09-0.03,0.35-0.03,0.53c0,0.09,0,0.15,0,0.21c0.5,0.24,0.97,0.59,1.35,1.06
		c0.74,0.88,1.03,1.97,0.94,3c1.88,0.76,5.3,1.91,7.3,2.41c1.21-1.18,2.44-2.38,3.65-3.62c2.65-2.65,8.74-9.27,12.09-12.94
		c-0.41-0.68-0.65-1.44-0.65-2.29C105.26,77.32,105.79,76.2,106.64,75.41z"/>
	<path class="st3" d="M142.88,54.08c0.44-3.97-0.29-6.91-2.12-8.77c-5.32-5.32-18.12-1.74-35.04,9.86
		c-0.68,0.47-0.88,1.41-0.38,2.12c0.47,0.68,1.41,0.88,2.12,0.38c14.92-10.21,27.18-14.21,31.18-10.21
		c2.32,2.32,1.65,8.65-1.77,16.56c-0.12,0.21-0.26,0.44-0.38,0.68c-0.18-0.03-0.38-0.03-0.56-0.03c-2.41,0-4.35,1.94-4.35,4.35
		c0,1.12,0.44,2.15,1.15,2.94c-0.09,0.18-0.21,0.38-0.29,0.56c-3.71,6.03-12.27,17.15-22.8,28.65c5.5,0.56,10.47,0.59,14.8,0.09
		c1.03-3.18,1.59-6.56,1.59-10.09c0-1.41-0.09-2.79-0.26-4.18c3.8-4.8,7.15-9.36,9.41-13.15c0.12-0.18,0.24-0.32,0.35-0.5
		c0.15,0,0.29,0.03,0.41,0.03c2.41,0,4.35-1.94,4.35-4.35c0-1.09-0.38-2.06-1.06-2.82c0.12-0.24,0.21-0.44,0.29-0.65
		C141.35,61.29,142.53,57.34,142.88,54.08z"/>
	<path class="st3" d="M81.4,97.76c-0.26,0.21-0.53,0.38-0.79,0.53c0.15,1.35,0.5,3.59,0.88,5.62c0.5,0.03,0.97,0.15,1.41,0.35
		c1.56-1.41,3.15-2.88,4.74-4.38c-2.12-0.65-4.65-1.5-6.15-2.15C81.43,97.71,81.43,97.74,81.4,97.76z"/>
	<path class="st3" d="M70.48,114.8c0.62-0.47,1.24-0.97,1.85-1.47c1.77-1.62,3.38-2.97,4.62-3.97c-0.09-0.35-0.15-0.74-0.15-1.15
		c0-1.44,0.71-2.71,1.77-3.5c-0.41-2.21-0.82-4.68-0.97-6.18c-0.74-0.24-1.41-0.65-1.94-1.27c-0.82-1-1.12-2.27-0.88-3.44
		c-5.12-3.88-9.15-10.18-11.03-17.06c-2.12,4.35-3.32,9.24-3.32,14.42C60.39,100.44,64.28,108.83,70.48,114.8z"/>
	<path class="st3" d="M107.02,103.91c-0.68,0.71-1.32,1.41-2,2.12c-0.18,0.21-2.27,2.24-4.3,4.21c0.18,0.47,0.26,0.97,0.26,1.53
		c0,2.41-1.94,4.35-4.35,4.35c-0.65,0-1.24-0.15-1.77-0.38c-10.18,8.88-20.36,15.97-28.95,20.21c-8.94,4.38-15.65,5.32-18.39,2.59
		c-2.62-2.62-1.85-8.88,2.06-17.27c0.29,0.06,0.56,0.09,0.88,0.09c2.82,0,5.12-2.29,5.12-5.12c0-1.35-0.53-2.56-1.35-3.47
		c1.74-2.82,3.71-5.77,5.85-8.77c0.5-0.68,0.35-1.62-0.32-2.12s-1.62-0.35-2.12,0.32c-2.24,3.09-4.27,6.09-6.03,9
		c-0.38-0.09-0.76-0.12-1.15-0.12c-2.82,0-5.12,2.29-5.12,5.12c0,1.44,0.59,2.74,1.56,3.68c-4.68,9.94-5.18,17.12-1.5,20.8
		c1.62,1.62,3.91,2.41,6.83,2.41c3.94,0,9-1.5,15.03-4.44c6.85-3.35,14.68-8.5,22.71-14.89c1.06,0.12,2.12,0.15,3.21,0.15
		c13.39,0,24.89-8.03,30.01-19.53c-1.71,0.15-3.47,0.24-5.35,0.24C114.49,104.62,110.88,104.38,107.02,103.91z"/>
	<path class="st3" d="M96.67,107.41c0.76,0,1.47,0.21,2.12,0.56c1.59-1.56,3.24-3.15,3.27-3.18c0.44-0.47,0.88-0.94,1.32-1.38
		c-0.29-0.06-0.62-0.09-0.91-0.15c-4.71-0.76-8.74-1.71-11.47-2.41c-2,1.91-3.97,3.77-5.91,5.53c0.26,0.56,0.41,1.21,0.41,1.85
		c0,2.41-1.94,4.35-4.35,4.35c-0.91,0-1.77-0.29-2.47-0.76c-2.53,2-5.68,4.71-5.68,4.71c-7.91,6.24-11.94,8.24-13.39,8.53
		c0.18-0.88,1.03-3.29,5.24-9.06c0.5-0.68,0.35-1.62-0.32-2.12c-0.68-0.5-1.62-0.35-2.12,0.32c-6.8,9.33-6.38,11.91-5.09,13.21
		c0.53,0.53,1.18,0.74,1.91,0.74c1.59,0,3.59-1,5.47-2.06c2.65-1.53,6.59-4.3,10.53-7.38c1.59,1.29,4,2.77,7.09,3.38
		c3.44-2.59,6.91-5.44,10.41-8.47c-0.26-0.56-0.41-1.18-0.41-1.82C92.31,109.36,94.25,107.41,96.67,107.41z"/>
</g>
</svg>
