<svg width="186" height="186" viewBox="0 0 186 186" fill="none" xmlns="http://www.w3.org/2000/svg">
<mask id="mask0_1359_43410" style="mask-type:alpha" maskUnits="userSpaceOnUse" x="0" y="0" width="186" height="186">
<circle cx="93" cy="93" r="93" fill="#F2F2F7"/>
</mask>
<g mask="url(#mask0_1359_43410)">
<circle cx="93" cy="93" r="93" fill="#F2F2F7"/>
<path d="M124.459 70.9761H61.5666C57.036 70.9761 53.3633 75.6228 53.3633 81.3548V126.329C53.3633 132.061 57.036 136.708 61.5666 136.708H124.459C128.989 136.708 132.662 132.061 132.662 126.329V81.3548C132.662 75.6228 128.989 70.9761 124.459 70.9761Z" stroke="#121213" stroke-width="4.4" stroke-linecap="round" stroke-linejoin="round"/>
<path d="M72.0469 70.976V63.9887C72.0469 58.4293 74.2553 53.0975 78.1864 49.1664C82.1176 45.2353 87.4493 43.0269 93.0087 43.0269C98.5681 43.0269 103.9 45.2353 107.831 49.1664C111.762 53.0975 113.971 58.4293 113.971 63.9887V70.976" stroke="#121213" stroke-width="4.4" stroke-linecap="round" stroke-linejoin="round"/>
</g>
</svg>
