<svg width="26" height="22" viewBox="0 0 26 22" fill="none" xmlns="http://www.w3.org/2000/svg">
<path d="M6.5511 4.32599C5.95639 4.49382 5.61034 5.11199 5.77817 5.7067C5.946 6.30141 6.56417 6.64747 7.15888 6.47963L6.5511 4.32599ZM17.6361 6.47963C18.2308 6.64747 18.849 6.30141 19.0168 5.7067C19.1846 5.11199 18.8386 4.49382 18.2439 4.32599L17.6361 6.47963ZM6.54304 15.275C5.94833 15.1072 5.33016 15.4532 5.16233 16.048C4.9945 16.6427 5.34055 17.2608 5.93526 17.4287L6.54304 15.275ZM18.8597 17.4287C19.4544 17.2608 19.8005 16.6427 19.6326 16.048C19.4648 15.4532 18.8466 15.1072 18.2519 15.275L18.8597 17.4287ZM17.8272 16.9601C17.8272 16.3422 17.3263 15.8413 16.7083 15.8413C16.0904 15.8413 15.5894 16.3422 15.5894 16.9601H17.8272ZM23.4825 16.9601L24.4806 17.4658C24.4948 17.4378 24.5077 17.4093 24.5195 17.3802L23.4825 16.9601ZM21.635 2.96968L22.6886 2.59321C22.6096 2.37192 22.4628 2.18114 22.2692 2.04793L21.635 2.96968ZM16.0925 1.14484L16.2097 0.0321141C15.7135 -0.0201634 15.2427 0.262407 15.0554 0.724859L16.0925 1.14484ZM13.8238 3.76626C13.5918 4.33902 13.8681 4.99136 14.4408 5.22331C15.0136 5.45526 15.6659 5.17898 15.8979 4.60622L13.8238 3.76626ZM9.20568 16.9601C9.20568 16.3422 8.70474 15.8413 8.0868 15.8413C7.46885 15.8413 6.96791 16.3422 6.96791 16.9601H9.20568ZM1.72524 16.9601L0.681305 17.3627C0.692217 17.391 0.704274 17.4189 0.717447 17.4462L1.72524 16.9601ZM3.48406 2.96968L2.82892 2.06266C2.64076 2.19857 2.49953 2.38962 2.42479 2.60937L3.48406 2.96968ZM8.70263 1.14484L9.7397 0.724859C9.55192 0.261169 9.07915 -0.0215225 8.58181 0.0324976L8.70263 1.14484ZM8.89722 4.60622C9.12917 5.17898 9.78151 5.45526 10.3543 5.22331C10.927 4.99136 11.2033 4.33902 10.9714 3.76626L8.89722 4.60622ZM8.81528 10.8773C8.81528 10.9183 8.77784 10.975 8.7025 10.975V13.2127C9.98761 13.2127 11.053 12.1801 11.053 10.8773H8.81528ZM8.7025 10.975C8.62715 10.975 8.58971 10.9183 8.58971 10.8773H6.35195C6.35195 12.1801 7.41738 13.2127 8.7025 13.2127V10.975ZM8.58971 10.8773C8.58971 10.8363 8.62715 10.7796 8.7025 10.7796V8.54186C7.41738 8.54186 6.35195 9.5745 6.35195 10.8773H8.58971ZM8.7025 10.7796C8.77784 10.7796 8.81528 10.8363 8.81528 10.8773H11.053C11.053 9.5745 9.98761 8.54186 8.7025 8.54186V10.7796ZM16.2053 10.8773C16.2053 10.9183 16.1678 10.975 16.0925 10.975V13.2127C17.3776 13.2127 18.443 12.1801 18.443 10.8773H16.2053ZM16.0925 10.975C16.0171 10.975 15.9797 10.9183 15.9797 10.8773H13.7419C13.7419 12.1801 14.8074 13.2127 16.0925 13.2127V10.975ZM15.9797 10.8773C15.9797 10.8363 16.0171 10.7796 16.0925 10.7796V8.54186C14.8074 8.54186 13.7419 9.5745 13.7419 10.8773H15.9797ZM16.0925 10.7796C16.1678 10.7796 16.2053 10.8363 16.2053 10.8773H18.443C18.443 9.5745 17.3776 8.54186 16.0925 8.54186V10.7796ZM7.15888 6.47963C9.26191 5.88613 10.8458 5.60927 12.3975 5.60927C13.9491 5.60927 15.5331 5.88613 17.6361 6.47963L18.2439 4.32599C16.0361 3.70292 14.2329 3.37151 12.3975 3.37151C10.5621 3.37151 8.7589 3.70292 6.5511 4.32599L7.15888 6.47963ZM5.93526 17.4287C10.4448 18.7013 14.3502 18.7013 18.8597 17.4287L18.2519 15.275C14.1398 16.4355 10.6552 16.4355 6.54304 15.275L5.93526 17.4287ZM15.5894 16.9601C15.5894 17.5049 15.7836 18.0602 15.9893 18.5096C16.207 18.9848 16.4952 19.4635 16.7962 19.8882C17.0957 20.3109 17.4307 20.7121 17.7558 21.0214C17.9168 21.1745 18.099 21.3277 18.2929 21.4498C18.4538 21.5511 18.7719 21.7287 19.1716 21.7287V19.491C19.4174 19.491 19.5431 19.5926 19.4851 19.556C19.4601 19.5403 19.3969 19.4939 19.2981 19.3999C19.1036 19.2149 18.8612 18.9319 18.6219 18.5943C18.384 18.2585 18.1719 17.9009 18.0239 17.5777C17.864 17.2287 17.8272 17.0237 17.8272 16.9601H15.5894ZM19.1716 21.7287C20.5073 21.7287 21.6437 21.0043 22.4841 20.2028C23.3401 19.3862 24.0263 18.3625 24.4806 17.4658L22.4844 16.4545C22.1171 17.1795 21.5716 17.9806 20.9396 18.5835C20.2918 19.2013 19.6835 19.491 19.1716 19.491V21.7287ZM24.5195 17.3802C25.0353 16.107 25.1658 14.1092 24.903 11.6699C24.6355 9.18659 23.945 6.1095 22.6886 2.59321L20.5813 3.34615C21.7883 6.72412 22.4323 9.62826 22.6781 11.9096C22.9286 14.235 22.7512 15.7853 22.4455 16.5401L24.5195 17.3802ZM22.2692 2.04793C20.2502 0.658614 18.1327 0.234714 16.2097 0.0321141L15.9753 2.25756C17.7473 2.44426 19.4307 2.81112 21.0007 3.89143L22.2692 2.04793ZM15.0554 0.724859L13.8238 3.76626L15.8979 4.60622L17.1296 1.56481L15.0554 0.724859ZM6.96791 16.9601C6.96791 17.0464 6.92814 17.2658 6.78332 17.6146C6.64785 17.9409 6.45451 18.2996 6.2384 18.6344C6.0205 18.972 5.8009 19.252 5.62605 19.4328C5.53693 19.5249 5.4834 19.5662 5.46838 19.5764C5.41932 19.6096 5.56087 19.491 5.83039 19.491V21.7287C6.24647 21.7287 6.56846 21.534 6.72295 21.4294C6.91148 21.3018 7.08461 21.1435 7.23451 20.9885C7.53771 20.6751 7.84556 20.2708 8.11848 19.848C8.3932 19.4224 8.65403 18.9448 8.85003 18.4727C9.03668 18.0231 9.20568 17.4822 9.20568 16.9601H6.96791ZM5.83039 19.491C5.38248 19.491 4.82153 19.2223 4.20292 18.6026C3.60338 18.0021 3.08384 17.2015 2.73304 16.4741L0.717447 17.4462C1.14875 18.3405 1.80176 19.3648 2.61925 20.1836C3.41768 20.9834 4.51824 21.7287 5.83039 21.7287V19.491ZM2.76918 16.5575C2.47438 15.7931 2.30616 14.2327 2.545 11.9039C2.77945 9.61787 3.39357 6.71018 4.54334 3.32999L2.42479 2.60937C1.22947 6.12344 0.573119 9.19698 0.318912 11.6756C0.0690852 14.1115 0.194007 16.0992 0.681305 17.3627L2.76918 16.5575ZM4.1392 3.8767C5.62783 2.80147 7.12737 2.4414 8.82345 2.25718L8.58181 0.0324976C6.69375 0.237574 4.7594 0.668272 2.82892 2.06266L4.1392 3.8767ZM7.66556 1.56481L8.89722 4.60622L10.9714 3.76626L9.7397 0.724859L7.66556 1.56481Z" fill="white"/>
</svg>
