<svg width="21" height="20" viewBox="0 0 21 20" fill="none" xmlns="http://www.w3.org/2000/svg">
<path d="M12.2204 19.1293V13.1069H13.9532H14.3508L14.4144 12.7144L14.8544 9.99817L14.9421 9.45625H14.3932H12.2204V8.02206C12.2204 7.68291 12.2847 7.48637 12.3892 7.3703C12.4854 7.26338 12.7018 7.13112 13.2381 7.13112H14.5031H14.9703V6.66391V4.16493V3.76335L14.5733 3.70302C13.8608 3.59474 13.058 3.48042 12.3032 3.48042C11.0831 3.48042 9.99633 3.84893 9.21111 4.59319C8.42209 5.34104 7.98593 6.42258 7.98593 7.75042V9.45625H5.97814H5.51093V9.92346V12.6397V13.1069H5.97814H7.98593V19.1293C3.79771 18.1398 0.670335 14.4129 0.670335 9.97806C0.670335 4.83081 4.91318 0.612046 10.1031 0.612046C15.2931 0.612046 19.536 4.83081 19.536 9.97806C19.536 14.4129 16.4086 18.1398 12.2204 19.1293Z" fill="white" stroke="white" stroke-width="0.934419"/>
</svg>
