<svg width="106" height="30" viewBox="0 0 106 30" fill="none" xmlns="http://www.w3.org/2000/svg">
<g clip-path="url(#clip0_361_510)">
<path d="M15.1992 21.5237L28.2052 12.7436C28.5201 12.5361 28.7034 12.177 28.6893 11.7994L28.3814 3.72096C28.3485 2.88631 27.4319 2.4037 26.741 2.86066L15.6575 11.2864C15.5447 11.3727 15.4765 11.5033 15.4718 11.6455L15.1992 21.5237Z" fill="url(#paint0_linear_361_510)"/>
<path d="M22.8012 16.3223L15.8235 20.435C14.9915 20.9689 14.9915 22.1765 15.8211 22.7104L26.7331 29.7374C27.4358 30.1897 28.3617 29.6907 28.3617 28.8607V20.8709C28.3617 20.5166 28.1808 20.1878 27.8823 19.9943L22.8012 16.3223Z" fill="url(#paint1_linear_361_510)"/>
<path d="M13.4908 11.0673L0.484897 19.8474C0.169972 20.0526 -0.0133427 20.4117 0.000758442 20.7917L0.308633 28.8701C0.341535 29.7047 1.25811 30.1873 1.94906 29.7304L13.0325 21.3046C13.1454 21.2183 13.2135 21.0878 13.2159 20.9479L13.4908 11.0673Z" fill="url(#paint2_linear_361_510)"/>
<path d="M5.88867 16.2687L12.8664 12.1561C13.6983 11.6222 13.6983 10.4145 12.8687 9.8806L1.9568 2.85368C1.2541 2.40138 0.328125 2.9003 0.328125 3.73029V11.7178C0.328125 12.0721 0.509089 12.4009 0.807563 12.5944L5.88867 16.2687Z" fill="url(#paint3_linear_361_510)"/>
<path d="M19.2247 0C19.173 2.62752 17.0108 4.74212 14.348 4.74212C11.6853 4.74212 9.52546 2.62752 9.4714 0C9.21523 0.615497 9.07422 1.28928 9.07422 1.9957C9.07422 4.88434 11.4362 7.22743 14.348 7.22743C17.2599 7.22743 19.6219 4.88434 19.6219 1.9957C19.6219 1.28928 19.4808 0.615497 19.2247 0Z" fill="url(#paint4_linear_361_510)"/>
</g>
<g clip-path="url(#clip1_361_510)">
<path d="M39.8426 30C39.5314 30 39.2661 29.894 39.0388 29.6792C38.8141 29.4671 38.7031 29.2143 38.7031 28.9206V3.1104C38.7031 2.81676 38.8141 2.5639 39.0415 2.35183C39.2661 2.13976 39.5341 2.03101 39.8454 2.03101H52.307C54.1097 2.03101 55.6146 2.29202 56.8272 2.81132C58.0371 3.33063 59.0088 3.98315 59.7423 4.76891C60.4732 5.55466 61.0037 6.40839 61.3258 7.32736C61.6479 8.24634 61.8103 9.1055 61.8103 9.90485C61.8103 10.7042 61.6966 11.4165 61.4719 12.0419C61.2473 12.6672 60.9712 13.2001 60.6491 13.6406C60.3243 14.081 60.0022 14.4454 59.6774 14.739C59.3526 15.0326 59.0927 15.2311 58.8951 15.3399C59.7667 15.9 60.5706 16.6911 61.3041 17.7162C62.0349 18.7412 62.403 20.0408 62.403 21.6123C62.403 22.6237 62.2055 23.6297 61.813 24.6302C61.4178 25.6281 60.8413 26.528 60.0807 27.3274C59.3201 28.1267 58.37 28.7738 57.2305 29.2659C56.091 29.758 54.7728 30.0054 53.2814 30.0054H39.8426V30ZM56.1072 10.1033C56.1072 9.09191 55.7689 8.32519 55.0922 7.80588C54.4156 7.28658 53.3464 7.02557 51.8821 7.02557H44.4062V13.1784H51.8821C53.3464 13.1784 54.4156 12.9174 55.0922 12.3981C55.7689 11.8787 56.1072 11.1147 56.1072 10.1033ZM44.4062 25.0054H52.2204C53.7686 25.0054 54.9028 24.6928 55.62 24.0674C56.3373 23.4421 56.6973 22.6237 56.6973 21.6096C56.6973 20.5982 56.3238 19.7716 55.5767 19.1327C54.8297 18.4938 53.7118 18.1729 52.2177 18.1729H44.4062V25.0054Z" fill="white"/>
<path d="M71.2744 28.9206C71.2744 29.2142 71.1607 29.4671 70.936 29.6792C70.7114 29.894 70.4434 30 70.1348 30H66.9247C66.6134 30 66.3482 29.894 66.1235 29.6792C65.8988 29.4671 65.7852 29.2142 65.7852 28.9206V2.71071C65.7852 2.41707 65.8988 2.16422 66.1235 1.95214C66.3482 1.74007 66.6161 1.63132 66.9247 1.63132H70.1348C70.4434 1.63132 70.7114 1.73735 70.936 1.95214C71.1607 2.16693 71.2744 2.41979 71.2744 2.71071V28.9206Z" fill="white"/>
<path d="M80.143 1.63132C80.4516 1.63132 80.7195 1.73735 80.9442 1.95214C81.1689 2.16693 81.2825 2.41979 81.2825 2.71071V5.82653C81.2825 6.12017 81.1689 6.37302 80.9442 6.5851C80.7195 6.79989 80.4516 6.90592 80.143 6.90592H76.5106C76.1993 6.90592 75.9341 6.79989 75.7094 6.5851C75.4848 6.37302 75.3711 6.12017 75.3711 5.82653V2.71071C75.3711 2.41707 75.4848 2.16422 75.7094 1.95214C75.9341 1.74007 76.202 1.63132 76.5106 1.63132H80.143V1.63132ZM81.0741 28.9206C81.0741 29.2142 80.9604 29.4671 80.7358 29.6792C80.5111 29.894 80.2432 30 79.9346 30H76.7244C76.4132 30 76.1479 29.894 75.9233 29.6792C75.6986 29.4671 75.5849 29.2142 75.5849 28.9206V10.3018C75.5849 10.0082 75.6986 9.7553 75.9233 9.54323C76.1479 9.33115 76.4159 9.2224 76.7244 9.2224H79.9346C80.2432 9.2224 80.5111 9.32843 80.7358 9.54323C80.9604 9.75802 81.0741 10.0109 81.0741 10.3018V28.9206Z" fill="white"/>
<path d="M94.7574 23.4067L89.7717 29.2414C89.4902 29.5622 89.2006 29.7689 88.9055 29.8613C88.6105 29.9538 88.2776 30 87.9122 30H84.6614C84.3502 30 84.0903 29.8939 83.8792 29.6792C83.6681 29.4671 83.5625 29.2006 83.5625 28.8798C83.5625 28.6677 83.6193 28.4801 83.7303 28.3197L91.3334 19.41L84.0687 10.8999C83.955 10.7395 83.9008 10.5546 83.9008 10.3398C83.9008 10.019 84.0064 9.75528 84.2175 9.54049C84.4286 9.32842 84.6885 9.21967 84.9998 9.21967H88.2532C88.6186 9.21967 88.9515 9.26589 89.2466 9.35833C89.5416 9.45077 89.8312 9.6574 90.1127 9.97823L94.8874 15.5709L99.6187 9.97823C99.9002 9.6574 100.19 9.45349 100.485 9.35833C100.78 9.26589 101.11 9.21967 101.478 9.21967H104.732C105.04 9.21967 105.303 9.3257 105.514 9.54049C105.725 9.75528 105.831 10.019 105.831 10.3398C105.831 10.5546 105.774 10.7395 105.663 10.8999L98.3113 19.5704L105.831 28.3197C105.942 28.4801 105.998 28.665 105.998 28.8798C105.998 29.2006 105.893 29.4671 105.682 29.6792C105.471 29.8939 105.211 30 104.899 30H101.646C101.281 30 100.948 29.9538 100.653 29.8613C100.358 29.7689 100.068 29.5622 99.7865 29.2414L94.7574 23.4067Z" fill="white"/>
</g>
<defs>
<linearGradient id="paint0_linear_361_510" x1="28.6898" y1="12.1035" x2="15.1988" y2="12.1035" gradientUnits="userSpaceOnUse">
<stop stop-color="#8B00B6"/>
<stop offset="1" stop-color="#FF009C"/>
</linearGradient>
<linearGradient id="paint1_linear_361_510" x1="28.3613" y1="23.1139" x2="15.1987" y2="23.1139" gradientUnits="userSpaceOnUse">
<stop stop-color="#E900A1"/>
<stop offset="1" stop-color="#8B00B6"/>
</linearGradient>
<linearGradient id="paint2_linear_361_510" x1="0.000758442" y1="20.4871" x2="13.4917" y2="20.4871" gradientUnits="userSpaceOnUse">
<stop stop-color="#8B00B6"/>
<stop offset="1" stop-color="#FF009C"/>
</linearGradient>
<linearGradient id="paint3_linear_361_510" x1="0.329018" y1="9.47682" x2="13.4916" y2="9.47682" gradientUnits="userSpaceOnUse">
<stop stop-color="#E900A1"/>
<stop offset="1" stop-color="#8B00B6"/>
</linearGradient>
<linearGradient id="paint4_linear_361_510" x1="9.07403" y1="3.61371" x2="19.6225" y2="3.61371" gradientUnits="userSpaceOnUse">
<stop stop-color="#8B00B6"/>
<stop offset="1" stop-color="#FF009C"/>
</linearGradient>
<clipPath id="clip0_361_510">
<rect width="28.6911" height="29.9076" fill="white"/>
</clipPath>
<clipPath id="clip1_361_510">
<rect width="67.2941" height="28.3687" fill="white" transform="translate(38.7031 1.63132)"/>
</clipPath>
</defs>
</svg>
