<svg width="23" height="19" viewBox="0 0 23 19" fill="none" xmlns="http://www.w3.org/2000/svg">
<path d="M6.93877 14.0098C5.54516 13.9855 4.32636 13.2623 3.62352 12.1848C4.04101 12.1708 4.44753 12.1095 4.83817 12.0052L4.79672 10.7348C3.26902 10.4319 2.06048 9.27871 1.68834 7.80479C2.11136 7.92739 2.55601 7.99968 3.0148 8.01451L5.32029 8.08902L3.3954 6.81795C2.31468 6.1043 1.6075 4.88855 1.6075 3.51563C1.6075 3.1223 1.66575 2.74208 1.77424 2.38256C4.16678 4.8769 7.49083 6.48855 11.1982 6.67293L12.0606 6.71582L11.8664 5.8745C11.7987 5.58166 11.7626 5.27974 11.7626 4.96983C11.7626 2.78427 13.5579 0.999797 15.788 0.999797C16.9491 0.999797 17.9953 1.48364 18.7299 2.25537L18.976 2.51392L19.3265 2.44606C19.725 2.3689 20.1151 2.26838 20.4952 2.14607C20.2797 2.34873 20.0413 2.52821 19.7842 2.68027L20.193 3.88978C20.4033 3.86489 20.6114 3.83372 20.8174 3.79643C20.5852 4.00246 20.3419 4.1965 20.0886 4.37739L19.7999 4.58359L19.8161 4.93802C19.8247 5.12754 19.8295 5.31797 19.8295 5.50548C19.8295 11.3234 15.3488 18.0003 7.17042 18.0003C5.57849 18.0003 4.05705 17.7089 2.65497 17.1781C4.39871 16.9139 5.99679 16.2076 7.32677 15.1781L8.7942 14.0421L6.93877 14.0098Z" fill="white" stroke="white" stroke-width="1.30489"/>
</svg>
